<?xml version="1.0" encoding="UTF-8"?>
<svg width="20px" height="19px" viewBox="0 0 20 19" version="1.1" xmlns="http://www.w3.org/2000/svg" xmlns:xlink="http://www.w3.org/1999/xlink">
    <!-- Generator: Sketch 39.1 (31720) - http://www.bohemiancoding.com/sketch -->
    <title>noun_598329</title>
    <desc>Created with Sketch.</desc>
    <defs></defs>
    <g id="Page-1" stroke="none" stroke-width="1" fill="none" fill-rule="evenodd">
        <g id="Icons" transform="translate(-26.000000, -479.000000)" fill="#000000">
            <g id="noun_598329" transform="translate(26.500000, 479.000000)">
                <g id="Group">
                    <path d="M9.38254545,10.3636364 C6.52477273,10.3636364 4.20072727,8.03959091 4.20072727,5.18181818 C4.20072727,2.32404545 6.52477273,0 9.38254545,0 C12.2403182,0 14.5643636,2.32404545 14.5643636,5.18181818 C14.5643636,8.03959091 12.2394545,10.3636364 9.38254545,10.3636364 Z M9.38254545,1.72727273 C7.47736364,1.72727273 5.928,3.27663636 5.928,5.18181818 C5.928,7.087 7.47736364,8.63636364 9.38254545,8.63636364 C11.2877273,8.63636364 12.8370909,7.087 12.8370909,5.18181818 C12.8370909,3.27663636 11.2868636,1.72727273 9.38254545,1.72727273 Z" id="Shape"></path>
                    <path d="M9.38254545,10.3636364 C6.52477273,10.3636364 4.20072727,8.03959091 4.20072727,5.18181818 C4.20072727,2.32404545 6.52477273,0 9.38254545,0 C12.2403182,0 14.5643636,2.32404545 14.5643636,5.18181818 C14.5643636,8.03959091 12.2394545,10.3636364 9.38254545,10.3636364 Z M9.38254545,1.72727273 C7.47736364,1.72727273 5.928,3.27663636 5.928,5.18181818 C5.928,7.087 7.47736364,8.63636364 9.38254545,8.63636364 C11.2877273,8.63636364 12.8370909,7.087 12.8370909,5.18181818 C12.8370909,3.27663636 11.2868636,1.72727273 9.38254545,1.72727273 Z" id="Shape"></path>
                    <path d="M16.6051364,19 L2.15995455,19 C1.52,19 0.918045455,18.7184545 0.507818182,18.2261818 C0.0906818182,17.7252727 -0.0811818182,17.0689091 0.0362727273,16.4237727 C0.857590909,11.9121364 4.788,8.63636364 9.38254545,8.63636364 C13.9762273,8.63636364 17.9066364,11.9121364 18.7279545,16.4255 C18.8462727,17.0706364 18.6744091,17.727 18.2564091,18.2279091 C17.8461818,18.7184545 17.2442273,19 16.6051364,19 Z M9.38254545,10.3636364 C5.62313636,10.3636364 2.40781818,13.0435 1.73590909,16.7338182 C1.71,16.8737273 1.74627273,17.0145 1.83436364,17.1198636 C1.88186364,17.1777273 1.98722727,17.2727273 2.15995455,17.2727273 L16.6051364,17.2727273 C16.7683636,17.2727273 16.8728636,17.1898182 16.9298636,17.1198636 C17.0188182,17.0145 17.0550909,16.8737273 17.0291818,16.7338182 C16.3564091,13.0435 13.1410909,10.3636364 9.38254545,10.3636364 Z" id="Shape"></path>
                </g>
            </g>
        </g>
    </g>
</svg>