<svg width="24" height="24" viewBox="0 0 24 24" fill="none" xmlns="http://www.w3.org/2000/svg">
<g class="custom-icon-svg custom-icon-community-members">
<path fill-rule="evenodd" clip-rule="evenodd" d="M4.47539 18.2133C4.47539 18.0483 4.48808 17.8872 4.4998 17.7251H1.58359C1.85207 16.003 3.54986 15.094 5.44193 14.8617C5.67526 14.4897 5.94472 14.1412 6.24737 13.8258C3.39267 13.8805 0.57019 15.2414 0.57019 18.2133C0.57019 18.4828 0.788882 18.7014 1.05834 18.7014H4.56521C4.51054 18.5482 4.47539 18.3851 4.47539 18.2133Z" fill="black"/>
<path fill-rule="evenodd" clip-rule="evenodd" d="M19.1199 7.96228C18.0431 7.96228 17.1673 8.83802 17.1673 9.91488C17.1673 10.9917 18.0431 11.8675 19.1199 11.8675C20.1968 11.8675 21.0725 10.9917 21.0725 9.91488C21.0725 8.83802 20.1968 7.96228 19.1199 7.96228ZM19.1199 12.8438C17.5051 12.8438 16.191 11.5297 16.191 9.91492C16.191 8.30012 17.5051 6.98602 19.1199 6.98602C20.7347 6.98602 22.0488 8.30012 22.0488 9.91492C22.0488 11.5297 20.7347 12.8438 19.1199 12.8438Z" fill="black"/>
<path fill-rule="evenodd" clip-rule="evenodd" d="M5.45175 7.96228C4.37489 7.96228 3.49915 8.83802 3.49915 9.91488C3.49915 10.9917 4.37489 11.8675 5.45175 11.8675C6.52861 11.8675 7.40435 10.9917 7.40435 9.91488C7.40435 8.83802 6.52861 7.96228 5.45175 7.96228ZM5.45173 12.8438C3.83693 12.8438 2.52283 11.5297 2.52283 9.91492C2.52283 8.30012 3.83693 6.98602 5.45173 6.98602C7.06653 6.98602 8.38062 8.30012 8.38062 9.91492C8.38062 11.5297 7.06653 12.8438 5.45173 12.8438Z" fill="black"/>
<path fill-rule="evenodd" clip-rule="evenodd" d="M18.3238 13.8258C18.6274 14.1412 18.8959 14.4897 19.1292 14.8626C21.0223 15.094 22.7181 16.003 22.9866 17.7251H20.0714C20.0841 17.8872 20.0958 18.0483 20.0958 18.2133C20.0958 18.3851 20.0606 18.5482 20.0069 18.7014H23.5118C23.7823 18.7014 24 18.4837 24 18.2133C24 15.2414 21.1785 13.8805 18.3238 13.8258Z" fill="black"/>
<path fill-rule="evenodd" clip-rule="evenodd" d="M6.45459 17.8578H18.0511C17.807 15.6641 15.9423 13.9526 13.6841 13.9526H10.8216C8.5634 13.9526 6.69866 15.6641 6.45459 17.8578ZM18.5656 18.8341H5.94012C5.66968 18.8341 5.45197 18.6154 5.45197 18.3459C5.45197 15.3848 7.8605 12.9763 10.8216 12.9763H13.6841C16.6452 12.9763 19.0538 15.3848 19.0538 18.3459C19.0538 18.6154 18.8361 18.8341 18.5656 18.8341Z" fill="black"/>
<path fill-rule="evenodd" clip-rule="evenodd" d="M12.22 6.14217C11.1432 6.14217 10.2674 7.01791 10.2674 8.09477C10.2674 9.17163 11.1432 10.0474 12.22 10.0474C13.2969 10.0474 14.1726 9.17163 14.1726 8.09477C14.1726 7.01791 13.2969 6.14217 12.22 6.14217ZM12.22 11.0237C10.6052 11.0237 9.29114 9.70959 9.29114 8.09479C9.29114 6.47999 10.6052 5.16589 12.22 5.16589C13.8348 5.16589 15.1489 6.47999 15.1489 8.09479C15.1489 9.70959 13.8348 11.0237 12.22 11.0237Z" fill="black"/>
</g>
</svg>
