<?xml version="1.0" encoding="UTF-8"?>
<svg width="28px" height="24px" viewBox="0 0 28 24" version="1.1" xmlns="http://www.w3.org/2000/svg" xmlns:xlink="http://www.w3.org/1999/xlink">
    <!-- Generator: Sketch 39.1 (31720) - http://www.bohemiancoding.com/sketch -->
    <title>noun_576554</title>
    <desc>Created with Sketch.</desc>
    <defs></defs>
    <g id="Page-1" stroke="none" stroke-width="1" fill="none" fill-rule="evenodd">
        <g id="Icons" transform="translate(-22.000000, -96.000000)" fill="#000000">
            <g id="noun_576554" transform="translate(22.000000, 96.000000)">
                <path d="M14.002625,23.625875 C13.202,23.625875 12.452125,23.31525 11.88775,22.750875 L2.0685,12.93075 C0.735,11.59725 0,9.823625 0,7.937125 C0,3.567375 3.633875,0.863625 7,0.863625 C8.946875,0.863625 10.695125,1.582875 12.05575,2.9435 L14,4.88775 L15.94425,2.9435 C17.304875,1.582875 19.053125,0.863625 21,0.863625 C24.367,0.863625 28,3.56825 28,7.937125 C28,9.823625 27.265,11.59725 25.9315,12.93075 L16.111375,22.750875 C15.54875,23.314375 14.79975,23.625 14.002625,23.625875 Z M7,2.613625 C4.47475,2.613625 1.75,4.648875 1.75,7.937125 C1.75,9.356375 2.302125,10.689875 3.30575,11.6935 L13.125875,21.513625 C13.591375,21.98 14.405125,21.98175 14.874125,21.513625 L24.69425,11.6935 C25.697,10.689875 26.25,9.356375 26.25,7.937125 C26.25,4.648875 23.52525,2.613625 21,2.613625 C19.97275,2.613625 18.4765,2.88575 17.1815,4.181625 L14.618625,6.7445 C14.2765,7.086625 13.7235,7.086625 13.381375,6.7445 L10.8185,4.181625 C9.522625,2.88575 8.02725,2.613625 7,2.613625 Z" id="Shape"></path>
            </g>
        </g>
    </g>
</svg>