<?xml version="1.0" encoding="UTF-8"?>
<svg width="28px" height="24px" viewBox="0 0 28 24" version="1.1" xmlns="http://www.w3.org/2000/svg" xmlns:xlink="http://www.w3.org/1999/xlink">
    <!-- Generator: Sketch 39.1 (31720) - http://www.bohemiancoding.com/sketch -->
    <title>noun_576554</title>
    <desc>Created with Sketch.</desc>
    <defs></defs>
    <g id="Page-1" stroke="none" stroke-width="1" fill="none" fill-rule="evenodd">
        <g id="Icons" transform="translate(-22.000000, -142.000000)" fill="#cc0000">
            <g id="noun_576554" transform="translate(22.000000, 142.000000)">
                <path d="M14.002625,23.625875 C13.202,23.625875 12.452125,23.31525 11.88775,22.750875 L2.0685,12.93075 C0.735,11.59725 0,9.823625 0,7.937125 C0,3.567375 3.633875,0.863625 7,0.863625 C8.946875,0.863625 10.695125,1.582875 12.05575,2.9435 L14,4.88775 L15.94425,2.9435 C17.304875,1.582875 19.053125,0.863625 21,0.863625 C24.367,0.863625 28,3.56825 28,7.937125 C28,9.823625 27.265,11.59725 25.9315,12.93075 L16.111375,22.750875 C15.54875,23.314375 14.79975,23.625 14.002625,23.625875 Z" id="Shape"></path>
            </g>
        </g>
    </g>
</svg>