<?xml version="1.0" encoding="UTF-8"?>
<svg width="26px" height="21px" viewBox="0 0 26 21" version="1.1" xmlns="http://www.w3.org/2000/svg" xmlns:xlink="http://www.w3.org/1999/xlink">
    <!-- Generator: Sketch 39.1 (31720) - http://www.bohemiancoding.com/sketch -->
    <title>Reply</title>
    <desc>Created with Sketch.</desc>
    <defs></defs>
    <g id="Page-1" stroke="none" stroke-width="1" fill="none" fill-rule="evenodd">
        <g id="Icons" transform="translate(-23.000000, -567.000000)" fill="#000000">
            <path d="M46.9580385,585.898408 C46.9878846,585.946549 47.0406208,585.975544 47.1406073,585.969845 C47.2112881,585.949627 47.2599927,585.885049 47.2599927,585.812318 C47.2599927,577.380939 42.818339,573.260092 33.3318828,572.982044 C32.8487362,572.967883 32.4644143,572.572131 32.4644143,572.088777 L32.4644143,568.902295 C32.4644143,568.83607 32.4246769,568.776507 32.3665078,568.752393 C32.302873,568.726259 32.232753,568.740201 32.1859817,568.786974 L24.7881925,576.18511 C24.7239456,576.249359 24.7239456,576.3515 24.7881925,576.41575 L32.1859817,583.813885 C32.2329197,583.860826 32.3029782,583.874792 32.3657315,583.848786 C32.4247222,583.824494 32.4644143,583.764953 32.4644143,583.698565 L32.4644143,580.536391 C32.4644143,580.039329 32.8700119,579.637789 33.3670483,579.642786 C40.9733389,579.719255 43.7767444,580.777714 46.9580385,585.898408 Z M34.2044217,583.698565 C34.2044217,584.465005 33.7439654,585.163008 33.0318835,585.456227 C32.3210353,585.750815 31.5019092,585.59058 30.955582,585.044228 L23.5577928,577.646092 C22.8140691,576.902334 22.8140691,575.698526 23.5577928,574.954767 L30.955582,567.556632 C31.5021246,567.010064 32.3191194,566.851902 33.0328335,567.145024 C33.7462064,567.440749 34.2044217,568.138053 34.2044217,568.902295 L34.2044217,571.276918 C44.0348004,571.808941 49,576.636146 49,585.812318 C49,586.663081 48.4352598,587.409298 47.6191586,587.642751 L47.4329654,587.696014 L47.2396176,587.707034 C46.5529835,587.746168 45.8776058,587.457904 45.4791823,586.815256 C42.8431947,582.572303 40.7998655,581.537131 34.2044217,581.395931 L34.2044217,583.698565 Z" id="Reply"></path>
        </g>
    </g>
</svg>