<?xml version="1.0" encoding="UTF-8"?>
<svg width="26px" height="16px" viewBox="0 0 26 16" version="1.1" xmlns="http://www.w3.org/2000/svg" xmlns:xlink="http://www.w3.org/1999/xlink">
    <!-- Generator: Sketch 39.1 (31720) - http://www.bohemiancoding.com/sketch -->
    <title>noun_598310</title>
    <desc>Created with Sketch.</desc>
    <defs></defs>
    <g id="Page-1" stroke="none" stroke-width="1" fill="none" fill-rule="evenodd">
        <g id="Icons" transform="translate(-23.000000, -439.000000)" fill="#000000">
            <g id="noun_598310" transform="translate(22.500000, 439.000000)">
                <g id="Group">
                    <path d="M13.5,15.8823529 C9.17205882,15.8823529 5.05455882,13.6373824 1.26264706,9.20938235 C0.633705882,8.47482353 0.633705882,7.40832353 1.26264706,6.67376471 L1.26264706,6.67376471 C5.05455882,2.24576471 9.17205882,0 13.5,0 C17.8279412,0 21.9454412,2.24576471 25.7373529,6.67376471 C26.3662941,7.40832353 26.3662941,8.47482353 25.7365588,9.20938235 C21.9454412,13.6373824 17.8279412,15.8823529 13.5,15.8823529 Z M2.46891176,7.70691176 C2.35376471,7.84032353 2.35376471,8.04202941 2.46891176,8.17623529 C5.94555882,12.2357647 9.65726471,14.2941176 13.5,14.2941176 C17.3435294,14.2941176 21.0544412,12.2357647 24.5310882,8.17544118 C24.6462353,8.04202941 24.6462353,7.84032353 24.5318824,7.70691176 C21.0544412,3.64658824 17.3435294,1.58823529 13.5,1.58823529 C9.65726471,1.58823529 5.94555882,3.64658824 2.46891176,7.70691176 L2.46891176,7.70691176 Z" id="Shape"></path>
                    <path d="M13.5,12.7058824 C10.8722647,12.7058824 8.73529412,10.5689118 8.73529412,7.94117647 C8.73529412,5.31344118 10.8722647,3.17647059 13.5,3.17647059 C16.1277353,3.17647059 18.2647059,5.31344118 18.2647059,7.94117647 C18.2647059,10.5689118 16.1277353,12.7058824 13.5,12.7058824 Z M13.5,4.76470588 C11.7481765,4.76470588 10.3235294,6.18935294 10.3235294,7.94117647 C10.3235294,9.693 11.7481765,11.1176471 13.5,11.1176471 C15.2518235,11.1176471 16.6764706,9.693 16.6764706,7.94117647 C16.6764706,6.18935294 15.2518235,4.76470588 13.5,4.76470588 Z" id="Shape"></path>
                </g>
            </g>
        </g>
    </g>
</svg>